<?xml version="1.0" standalone="no"?>
<!DOCTYPE svg PUBLIC "-//W3C//DTD SVG 20010904//EN"
 "http://www.w3.org/TR/2001/REC-SVG-20010904/DTD/svg10.dtd">
<svg version="1.0" xmlns="http://www.w3.org/2000/svg"
 width="500.000000pt" height="500.000000pt" viewBox="0 0 500.000000 500.000000"
 preserveAspectRatio="xMidYMid meet">
<metadata>
Created by potrace 1.11, written by Peter Selinger 2001-2013
</metadata>
<g transform="translate(0.000000,500.000000) scale(0.100000,-0.100000)"
fill="#000000" stroke="none">
<path d="M0 2500 l0 -2500 2500 0 2500 0 0 2500 0 2500 -2500 0 -2500 0 0
-2500z m1917 2149 c16 -6 58 -2 131 12 139 27 457 30 597 4 308 -55 647 -253
881 -512 l56 -63 -166 0 -166 0 0 -335 0 -335 351 -2 352 -3 22 -70 c49 -150
65 -389 41 -613 -34 -314 -71 -451 -178 -647 -40 -71 -72 -131 -72 -132 -1 0
-98 18 -216 42 -118 24 -215 43 -216 42 -2 -3 -164 -546 -164 -552 0 -2 17 -5
38 -7 l37 -3 3 -243 2 -243 58 3 57 3 3 243 2 242 40 0 40 0 0 -575 0 -575
-40 0 -40 0 0 270 0 270 -60 0 -60 0 -2 -267 -3 -268 -140 0 -140 0 -3 477
c-1 263 -4 478 -6 478 -3 0 -11 -3 -20 -6 -14 -5 -16 -57 -16 -480 l0 -474
-45 0 -45 0 0 450 c0 248 -2 450 -4 450 -2 0 -435 -207 -961 -460 -527 -253
-960 -459 -961 -457 -3 3 415 1824 448 1957 l14 55 547 3 547 2 0 335 0 335
-32 0 c-18 0 -112 -15 -208 -34 -96 -20 -339 -67 -540 -106 -201 -40 -384 -80
-407 -90 l-41 -18 2 -214 c2 -117 1 -246 -3 -286 l-6 -72 -150 -140 c-82 -76
-151 -133 -153 -127 -1 7 27 204 63 438 36 234 65 436 65 448 0 12 -10 40 -21
63 -33 65 -161 269 -165 265 -9 -8 -54 -253 -54 -290 0 -21 13 -68 28 -105 16
-37 32 -79 36 -95 4 -18 -19 -147 -68 -385 -42 -196 -127 -604 -190 -907 -171
-822 -188 -899 -200 -914 -16 -20 -24 17 -25 122 -1 100 32 373 159 1297 50
360 97 705 105 765 12 89 13 127 4 195 -13 93 -15 418 -4 536 5 55 10 74 21
74 8 0 26 26 41 60 l26 60 162 0 162 0 26 -60 26 -60 66 0 c60 0 66 2 61 18
-4 10 -71 160 -150 333 -134 294 -145 314 -172 319 -28 6 -21 14 192 225 121
121 251 254 287 297 50 57 98 97 189 158 l122 81 89 -96 c50 -53 101 -101 114
-106z m1802 -748 c28 -44 51 -82 51 -85 0 -4 -25 -6 -55 -6 l-55 0 0 85 c0 47
2 85 4 85 2 0 27 -36 55 -79z m-2750 -150 c34 -74 61 -135 61 -137 0 -2 -57
-4 -126 -4 -97 0 -125 3 -121 13 16 41 120 267 123 265 1 -2 30 -63 63 -137z
m2896 -123 c30 -62 55 -116 55 -120 0 -5 -58 -8 -130 -8 l-130 0 0 120 0 120
76 0 75 0 54 -112z m-85 -2723 l0 -575 -140 0 -140 0 0 575 0 575 140 0 140 0
0 -575z m210 0 l0 -575 -45 0 -45 0 0 575 0 575 45 0 45 0 0 -575z m425 550
c112 -41 232 -204 270 -369 23 -99 21 -280 -4 -379 -40 -156 -138 -294 -247
-347 -46 -23 -60 -24 -224 -25 l-175 0 -3 560 c-1 308 0 566 3 574 8 21 313
10 380 -14z"/>
<path d="M2190 4095 c-173 -36 -317 -121 -378 -223 -22 -38 -27 -59 -27 -112
0 -53 5 -74 27 -112 53 -90 176 -169 327 -210 110 -31 352 -31 464 0 151 41
279 128 326 220 28 55 28 148 1 201 -58 115 -198 200 -388 237 -91 17 -265 17
-352 -1z m357 -81 c115 -30 230 -110 259 -180 19 -44 18 -108 -2 -150 -36 -75
-149 -151 -266 -179 -84 -20 -263 -19 -341 1 -167 43 -281 146 -281 254 0 126
153 243 354 271 72 10 205 2 277 -17z"/>
<path d="M2225 3996 c-152 -37 -255 -133 -255 -239 0 -118 152 -228 336 -244
l74 -6 0 252 0 251 -52 -1 c-29 0 -76 -6 -103 -13z"/>
<path d="M1010 4085 c0 -3 67 -153 150 -333 l150 -327 197 -3 c109 -1 203 0
210 2 8 3 -39 117 -139 335 l-151 331 -208 0 c-115 0 -209 -2 -209 -5z"/>
<path d="M3065 4078 c-3 -7 -4 -157 -3 -333 l3 -320 65 0 65 0 0 330 0 330
-63 3 c-44 2 -64 -1 -67 -10z"/>
<path d="M4320 900 l0 -449 44 13 c147 44 248 222 249 436 1 194 -81 362 -205
424 -96 48 -88 88 -88 -424z"/>
</g>
</svg>
